<svg preserveAspectRatio="none" width="100%" height="100%" overflow="visible" style="display: block;" viewBox="0 0 44 44" fill="none" xmlns="http://www.w3.org/2000/svg">
<path id="Union" d="M22.5674 0.00683594C34.4552 0.307973 44 10.0396 44 22L43.9932 22.5674C43.6922 34.4552 33.9603 43.9998 22 44L21.4316 43.9932C9.73262 43.6965 0.303036 34.2665 0.00683594 22.5674L0 22C0 9.84977 9.84977 0 22 0L22.5674 0.00683594ZM22 1.65918C10.7662 1.65918 1.65918 10.7662 1.65918 22C1.65921 33.2337 10.7663 42.3408 22 42.3408C33.2336 42.3406 42.3408 33.2336 42.3408 22C42.3408 10.7664 33.2336 1.65938 22 1.65918ZM22.373 16.499C23.046 16.4991 23.6474 16.636 24.1768 16.9082C24.706 17.1804 25.1224 17.552 25.4248 18.0234C25.731 18.495 25.8859 19.0299 25.8896 19.6279C25.8859 20.2529 25.7175 20.811 25.3848 21.3018C25.0558 21.7886 24.6187 22.1043 24.0742 22.25V22.3193C24.4939 22.396 24.8725 22.5778 25.209 22.8652C25.5455 23.1489 25.8142 23.5041 26.0146 23.9297C26.215 24.3513 26.3165 24.8113 26.3203 25.3096C26.3165 25.9458 26.1469 26.5134 25.8105 27.0117C25.4778 27.5063 25.0136 27.896 24.4199 28.1797C23.8302 28.4594 23.1479 28.5996 22.373 28.5996C21.594 28.5996 20.9051 28.4596 20.3076 28.1797C19.714 27.896 19.2507 27.5062 18.918 27.0117C18.5854 26.5134 18.421 25.9458 18.4248 25.3096C18.4211 24.8113 18.5173 24.3513 18.7139 23.9297C18.9105 23.5041 19.1792 23.1489 19.5195 22.8652C19.8636 22.5778 20.2475 22.396 20.6709 22.3193V22.25C20.1152 22.1043 19.6727 21.7885 19.3438 21.3018C19.0148 20.811 18.8517 20.2529 18.8555 19.6279C18.8517 19.0299 19.0012 18.495 19.3037 18.0234C19.6062 17.5519 20.0225 17.1804 20.5518 16.9082C21.085 16.636 21.6924 16.499 22.373 16.499ZM15.3105 28.4385H13.9043V18.1553H13.8359L11 20.0654V18.6162L13.9043 16.6602H15.3105V28.4385ZM22.373 22.9639C21.8777 22.9639 21.4344 23.0613 21.0449 23.2568C20.6594 23.4523 20.3549 23.7205 20.1318 24.0615C19.9125 24.4027 19.8048 24.7965 19.8086 25.2412C19.8049 25.6627 19.9053 26.0305 20.1094 26.3447C20.3173 26.6591 20.6143 26.9027 21 27.0752C21.3857 27.2477 21.8436 27.334 22.373 27.334C22.8985 27.3339 23.3525 27.2477 23.7344 27.0752C24.1161 26.9027 24.4112 26.659 24.6191 26.3447C24.8269 26.0305 24.9327 25.6627 24.9365 25.2412C24.9327 24.7965 24.8198 24.4027 24.5967 24.0615C24.3736 23.7203 24.0683 23.4524 23.6826 23.2568C23.3008 23.0614 22.8644 22.9639 22.373 22.9639ZM32.0908 21.9287H35.1992V23.2168H32.0908V26.3682H30.8203V23.2168H27.7119V21.9287H30.8203V18.7764H32.0908V21.9287ZM22.373 17.7412C21.9382 17.7412 21.5576 17.8244 21.2324 17.9893C20.9075 18.1502 20.6562 18.3799 20.4785 18.6787C20.3008 18.9739 20.2131 19.3211 20.2168 19.7197C20.213 20.1261 20.3019 20.4813 20.4834 20.7842C20.6687 21.087 20.9248 21.3225 21.25 21.4912C21.5751 21.6598 21.9497 21.7441 22.373 21.7441C22.7888 21.7441 23.1572 21.6598 23.4785 21.4912C23.8036 21.3226 24.0589 21.0869 24.2441 20.7842C24.4294 20.4813 24.5245 20.1261 24.5283 19.7197C24.5245 19.3211 24.4315 18.9739 24.25 18.6787C24.0686 18.3799 23.8172 18.1502 23.4961 17.9893C23.1748 17.8244 22.8002 17.7413 22.373 17.7412Z" fill="var(--fill-0, #5D5FA8)"/>
</svg>
