<svg width="125" height="33" viewBox="0 0 125 33" fill="none" xmlns="http://www.w3.org/2000/svg">
<path d="M19.776 14.9237C19.7429 11.3784 22.7864 9.6536 22.9256 9.5733C21.2019 7.15 18.5303 6.8189 17.5915 6.7925C15.3476 6.5648 13.1711 8.0872 12.0281 8.0872C10.8622 8.0872 9.10208 6.8145 7.20503 6.8519C4.76384 6.8882 2.48008 8.2511 1.22755 10.3675C-1.35737 14.6828 0.57048 21.0243 3.04703 24.5124C4.28587 26.2207 5.73347 28.1281 7.62824 28.061C9.48194 27.9873 10.1744 26.9214 12.4114 26.9214C14.6278 26.9214 15.278 28.061 17.2105 28.0181C19.1999 27.9873 20.4524 26.3021 21.6479 24.5784C23.0796 22.6204 23.6545 20.6921 23.6773 20.5931C23.6305 20.5777 19.8136 19.173 19.776 14.9237Z" fill="#F1F3F9"/>
<path d="M16.1256 4.4979C17.1226 3.2956 17.8048 1.6599 17.6154 0C16.1724 0.0616 14.3677 0.9625 13.3285 2.1384C12.4091 3.1746 11.5878 4.873 11.7999 6.4702C13.4209 6.5868 15.0853 5.6815 16.1256 4.4979Z" fill="#F1F3F9"/>
<path d="M46.6131 27.8156H44.0225L42.6034 23.5157H37.6708L36.319 27.8156H33.7969L38.6838 13.1768H41.7022L46.6131 27.8156ZM42.1756 21.7117L40.8923 17.8892C40.7565 17.4987 40.5021 16.5791 40.1268 15.1315H40.0812C39.9318 15.7541 39.6911 16.6737 39.3603 17.8892L38.0997 21.7117H42.1756Z" fill="#F1F3F9"/>
<path d="M59.1744 22.4077C59.1744 24.2029 58.6713 25.6219 57.6652 26.6636C56.764 27.5909 55.6449 28.054 54.3091 28.054C52.8672 28.054 51.8314 27.5546 51.2006 26.5558H51.155V32.1163H48.7229V20.7346C48.7229 19.606 48.6921 18.4477 48.6328 17.2597H50.7717L50.9074 18.9328H50.9531C51.7641 17.6722 52.995 17.043 54.6468 17.043C55.9381 17.043 57.0161 17.5347 57.8785 18.5192C58.7432 19.5048 59.1744 20.8006 59.1744 22.4077ZM56.6967 22.4935C56.6967 21.4661 56.4572 20.6191 55.9758 19.9525C55.4499 19.2573 54.7438 18.9097 53.8585 18.9097C53.2585 18.9097 52.7132 19.1033 52.2261 19.485C51.7379 19.87 51.4185 20.3727 51.2691 20.9953C51.1938 21.2857 51.1561 21.5233 51.1561 21.7103V23.4703C51.1561 24.2381 51.4002 24.886 51.8885 25.4151C52.3767 25.9442 53.011 26.2082 53.7912 26.2082C54.7073 26.2082 55.4202 25.8672 55.9301 25.1874C56.4412 24.5065 56.6967 23.6089 56.6967 22.4935Z" fill="#F1F3F9"/>
<path d="M71.7592 22.4077C71.7592 24.2029 71.2561 25.6219 70.2489 26.6636C69.3488 27.5909 68.2297 28.054 66.8939 28.054C65.452 28.054 64.4162 27.5546 63.7866 26.5558H63.7409V32.1163H61.3089V20.7346C61.3089 19.606 61.2781 18.4477 61.2188 17.2597H63.3576L63.4934 18.9328H63.539C64.3489 17.6722 65.5798 17.043 67.2327 17.043C68.5229 17.043 69.6009 17.5347 70.4656 18.5192C71.3269 19.5048 71.7592 20.8006 71.7592 22.4077ZM69.2815 22.4935C69.2815 21.4661 69.0408 20.6191 68.5594 19.9525C68.0335 19.2573 67.3297 18.9097 66.4433 18.9097C65.8422 18.9097 65.298 19.1033 64.8098 19.485C64.3216 19.87 64.0033 20.3727 63.8539 20.9953C63.7797 21.2857 63.7409 21.5233 63.7409 21.7103V23.4703C63.7409 24.2381 63.985 24.886 64.471 25.4151C64.9592 25.9431 65.5935 26.2082 66.376 26.2082C67.2921 26.2082 68.005 25.8672 68.5149 25.1874C69.026 24.5065 69.2815 23.6089 69.2815 22.4935Z" fill="#F1F3F9"/>
<path d="M85.8398 23.71C85.8398 24.9552 85.3915 25.9683 84.4915 26.7504C83.5025 27.6051 82.1256 28.0319 80.3563 28.0319C78.7228 28.0319 77.4132 27.7283 76.4219 27.12L76.9854 25.1653C78.0531 25.7879 79.2247 26.1003 80.5012 26.1003C81.4172 26.1003 82.1301 25.9001 82.6423 25.5019C83.1522 25.1037 83.4066 24.5691 83.4066 23.9025C83.4066 23.3085 83.1967 22.808 82.7758 22.4021C82.3571 21.9962 81.6579 21.6189 80.6814 21.2702C78.0235 20.3143 76.6957 18.914 76.6957 17.0726C76.6957 15.8692 77.1611 14.8825 78.0931 14.1147C79.0216 13.3458 80.2605 12.9619 81.8096 12.9619C83.191 12.9619 84.3386 13.194 85.2546 13.6571L84.6466 15.5689C83.7911 15.1201 82.8237 14.8957 81.7412 14.8957C80.8856 14.8957 80.2171 15.0992 79.738 15.504C79.3331 15.8659 79.13 16.307 79.13 16.8295C79.13 17.4081 79.3616 17.8866 79.827 18.2628C80.2319 18.6104 80.9677 18.9866 82.0355 19.3925C83.3416 19.8996 84.301 20.4925 84.9181 21.1723C85.533 21.8499 85.8398 22.698 85.8398 23.71Z" fill="#F1F3F9"/>
<path d="M93.8852 19.019H91.2045V24.1439C91.2045 25.4474 91.6768 26.0986 92.6236 26.0986C93.0582 26.0986 93.4187 26.0623 93.7039 25.9897L93.7712 27.7706C93.292 27.9433 92.6612 28.0302 91.8798 28.0302C90.9193 28.0302 90.1687 27.7475 89.6269 27.1832C89.0873 26.6178 88.8158 25.6696 88.8158 24.3375V19.0168H87.2188V17.2568H88.8158V15.3241L91.2045 14.6289V17.2568H93.8852V19.019Z" fill="#F1F3F9"/>
<path d="M105.972 22.4504C105.972 24.0729 105.49 25.405 104.53 26.4467C103.523 27.5192 102.186 28.0538 100.519 28.0538C98.9129 28.0538 97.6341 27.5401 96.6805 26.5127C95.7268 25.4853 95.25 24.1884 95.25 22.6253C95.25 20.9896 95.7405 19.6498 96.725 18.6081C97.7072 17.5653 99.0327 17.0439 100.699 17.0439C102.305 17.0439 103.598 17.5576 104.573 18.5861C105.506 19.5838 105.972 20.8719 105.972 22.4504ZM103.448 22.5263C103.448 21.5528 103.233 20.7179 102.796 20.0216C102.286 19.179 101.557 18.7588 100.613 18.7588C99.635 18.7588 98.8924 19.1801 98.3825 20.0216C97.9456 20.719 97.73 21.5671 97.73 22.5703C97.73 23.5438 97.9456 24.3787 98.3825 25.0739C98.9084 25.9165 99.643 26.3367 100.591 26.3367C101.52 26.3367 102.248 25.9077 102.774 25.0519C103.223 24.3424 103.448 23.4987 103.448 22.5263Z" fill="#F1F3F9"/>
<path d="M113.888 19.3222C113.647 19.2793 113.39 19.2573 113.121 19.2573C112.266 19.2573 111.604 19.5686 111.139 20.1923C110.734 20.7423 110.531 21.4375 110.531 22.2768V27.8153H108.1L108.123 20.5839C108.123 19.3673 108.092 18.2596 108.031 17.2608H110.15L110.239 19.2804H110.306C110.563 18.5863 110.968 18.0275 111.522 17.6084C112.064 17.2311 112.649 17.043 113.28 17.043C113.505 17.043 113.708 17.0584 113.888 17.0859V19.3222Z" fill="#F1F3F9"/>
<path d="M124.759 22.0383C124.759 22.4585 124.731 22.8127 124.671 23.102H117.374C117.403 24.1448 117.755 24.9423 118.433 25.4923C119.048 25.984 119.843 26.2304 120.819 26.2304C121.9 26.2304 122.885 26.0643 123.772 25.731L124.153 27.359C123.117 27.7946 121.894 28.0113 120.483 28.0113C118.785 28.0113 117.453 27.5295 116.483 26.567C115.516 25.6045 115.031 24.312 115.031 22.6906C115.031 21.0989 115.482 19.7734 116.384 18.7163C117.329 17.5877 118.605 17.0234 120.211 17.0234C121.789 17.0234 122.983 17.5877 123.794 18.7163C124.437 19.6128 124.759 20.7216 124.759 22.0383ZM122.44 21.43C122.456 20.7348 122.298 20.1342 121.968 19.6271C121.547 18.9748 120.9 18.6492 120.03 18.6492C119.235 18.6492 118.588 18.9671 118.094 19.6051C117.689 20.1122 117.448 20.7205 117.374 21.4289H122.44V21.43Z" fill="#F1F3F9"/>
<path d="M41.3725 4.16973C41.3725 5.46443 40.9699 6.43903 40.1656 7.09353C39.4207 7.69743 38.3621 7.99993 36.9909 7.99993C36.3111 7.99993 35.7293 7.97133 35.2422 7.91413V0.840029C35.8776 0.741029 36.562 0.69043 37.3012 0.69043C38.6074 0.69043 39.5918 0.964329 40.2557 1.51213C40.9995 2.13143 41.3725 3.01693 41.3725 4.16973ZM40.112 4.20163C40.112 3.36233 39.8816 2.71883 39.4207 2.27003C38.9599 1.82233 38.2868 1.59793 37.4005 1.59793C37.024 1.59793 36.7035 1.62213 36.4377 1.67273V7.05063C36.5848 7.07263 36.8541 7.08253 37.2453 7.08253C38.1602 7.08253 38.8663 6.83723 39.3637 6.34663C39.8611 5.85603 40.112 5.14103 40.112 4.20163Z" fill="#F1F3F9"/>
<path d="M48.0481 5.30091C48.0481 6.09841 47.8119 6.75181 47.3397 7.26441C46.8446 7.79131 46.1886 8.05421 45.3696 8.05421C44.5802 8.05421 43.9517 7.80231 43.4828 7.29631C43.0151 6.79141 42.7812 6.15451 42.7812 5.38671C42.7812 4.58371 43.0219 3.92481 43.5056 3.41331C43.9893 2.90181 44.6395 2.64551 45.4586 2.64551C46.248 2.64551 46.8822 2.89741 47.3625 3.40231C47.8188 3.89291 48.0481 4.52651 48.0481 5.30091ZM46.8081 5.33831C46.8081 4.85981 46.7008 4.44951 46.4875 4.10741C46.2366 3.69381 45.8795 3.48701 45.4152 3.48701C44.935 3.48701 44.5699 3.69381 44.319 4.10741C44.1045 4.44951 43.9984 4.86641 43.9984 5.35921C43.9984 5.83771 44.1057 6.24801 44.319 6.59011C44.5779 7.00371 44.9384 7.21051 45.4038 7.21051C45.8601 7.21051 46.2183 7.00041 46.4761 6.57911C46.6974 6.23041 46.8081 5.81681 46.8081 5.33831Z" fill="#F1F3F9"/>
<path d="M57.0178 2.75098L55.3352 7.93638H54.2401L53.5431 5.68468C53.3663 5.12258 53.2226 4.56378 53.1108 4.00938H53.0891C52.9853 4.57918 52.8416 5.13688 52.6568 5.68468L51.9164 7.93638H50.8088L49.2266 2.75098H50.4551L51.0632 5.21608C51.2103 5.79908 51.3312 6.35458 51.4282 6.88038H51.4499C51.5388 6.44698 51.686 5.89478 51.8936 5.22708L52.6568 2.75208H53.631L54.3622 5.17428C54.539 5.76498 54.6827 6.33368 54.7934 6.88148H54.8265C54.9074 6.34798 55.0295 5.77928 55.1915 5.17428L55.844 2.75208H57.0178V2.75098Z" fill="#F1F3F9"/>
<path d="M63.2057 7.93688H62.0102V4.96688C62.0102 4.05168 61.6497 3.59408 60.9265 3.59408C60.5717 3.59408 60.2854 3.71948 60.063 3.97138C59.8428 4.22328 59.731 4.52028 59.731 4.86018V7.93578H58.5355V4.23318C58.5355 3.77778 58.5207 3.28388 58.4922 2.74928H59.5428L59.5987 3.55998H59.6318C59.771 3.30808 59.9786 3.10018 60.2512 2.93408C60.5752 2.74048 60.9379 2.64258 61.3349 2.64258C61.8368 2.64258 62.2543 2.79878 62.5863 3.11228C62.9992 3.49618 63.2057 4.06928 63.2057 4.83048V7.93688Z" fill="#F1F3F9"/>
<path d="M66.5144 7.93677H65.3203V0.37207H66.5144V7.93677Z" fill="#F1F3F9"/>
<path d="M73.5481 5.30091C73.5481 6.09841 73.3119 6.75181 72.8397 7.26441C72.3446 7.79131 71.6875 8.05421 70.8696 8.05421C70.0791 8.05421 69.4505 7.80231 68.9828 7.29631C68.5151 6.79141 68.2812 6.15451 68.2812 5.38671C68.2812 4.58371 68.5219 3.92481 69.0056 3.41331C69.4893 2.90181 70.1395 2.64551 70.9574 2.64551C71.748 2.64551 72.3811 2.89741 72.8625 3.40231C73.3188 3.89291 73.5481 4.52651 73.5481 5.30091ZM72.3069 5.33831C72.3069 4.85981 72.1997 4.44951 71.9864 4.10741C71.7366 3.69381 71.3784 3.48701 70.9152 3.48701C70.4338 3.48701 70.0688 3.69381 69.819 4.10741C69.6045 4.44951 69.4984 4.86641 69.4984 5.35921C69.4984 5.83771 69.6056 6.24801 69.819 6.59011C70.0779 7.00371 70.4384 7.21051 70.9038 7.21051C71.3601 7.21051 71.7172 7.00041 71.975 6.57911C72.1974 6.23041 72.3069 5.81681 72.3069 5.33831Z" fill="#F1F3F9"/>
<path d="M79.3287 7.93651H78.2553L78.1663 7.33921H78.1332C77.7659 7.81551 77.2423 8.05421 76.5624 8.05421C76.0548 8.05421 75.6441 7.89691 75.335 7.58451C75.0544 7.30071 74.9141 6.94761 74.9141 6.52851C74.9141 5.89491 75.1878 5.41201 75.7388 5.07761C76.2887 4.74321 77.0621 4.57931 78.0579 4.58701V4.49021C78.0579 3.80711 77.6861 3.46611 76.9412 3.46611C76.4107 3.46611 75.943 3.59481 75.5392 3.85001L75.2962 3.09321C75.7959 2.79511 76.413 2.64551 77.1408 2.64551C78.5462 2.64551 79.2512 3.36051 79.2512 4.79051V6.70011C79.2512 7.21821 79.2774 7.63071 79.3287 7.93651ZM78.0876 6.15451V5.35481C76.7689 5.33281 76.1096 5.68151 76.1096 6.39981C76.1096 6.67041 76.1848 6.87281 76.3388 7.00811C76.4928 7.14341 76.6891 7.21051 76.9229 7.21051C77.1853 7.21051 77.4305 7.13021 77.6541 6.97071C77.8788 6.81011 78.0169 6.60661 78.0682 6.35691C78.0808 6.30081 78.0876 6.23261 78.0876 6.15451Z" fill="#F1F3F9"/>
<path d="M86.1255 7.93677H85.0646L85.0087 7.10407H84.9756C84.6368 7.73767 84.0596 8.05447 83.2486 8.05447C82.6006 8.05447 82.0611 7.80917 81.6333 7.31857C81.2055 6.82797 80.9922 6.19107 80.9922 5.40897C80.9922 4.56967 81.2238 3.88987 81.6892 3.37067C82.1398 2.88667 82.6919 2.64467 83.3489 2.64467C84.071 2.64467 84.5764 2.87897 84.8639 3.34867H84.8867V0.37207H86.0833V6.53977C86.0833 7.04467 86.097 7.50997 86.1255 7.93677ZM84.8867 5.74997V4.88537C84.8867 4.73577 84.8753 4.61477 84.8536 4.52237C84.7863 4.24517 84.6414 4.01197 84.4212 3.82387C84.1988 3.63577 83.9307 3.54117 83.6216 3.54117C83.1756 3.54117 82.8265 3.71167 82.5698 4.05377C82.3154 4.39587 82.1865 4.83257 82.1865 5.36607C82.1865 5.87867 82.3086 6.29447 82.5539 6.61457C82.8128 6.95557 83.1619 7.12607 83.5988 7.12607C83.9912 7.12607 84.3049 6.98417 84.5433 6.69927C84.7737 6.43637 84.8867 6.11957 84.8867 5.74997Z" fill="#F1F3F9"/>
<path d="M96.3449 5.30091C96.3449 6.09841 96.1088 6.75181 95.6365 7.26441C95.1414 7.79131 94.4867 8.05421 93.6665 8.05421C92.8782 8.05421 92.2497 7.80231 91.7797 7.29631C91.312 6.79141 91.0781 6.15451 91.0781 5.38671C91.0781 4.58371 91.3188 3.92481 91.8025 3.41331C92.2862 2.90181 92.9364 2.64551 93.7566 2.64551C94.5448 2.64551 95.1802 2.89741 95.6593 3.40231C96.1156 3.89291 96.3449 4.52651 96.3449 5.30091ZM95.1061 5.33831C95.1061 4.85981 94.9988 4.44951 94.7855 4.10741C94.5334 3.69381 94.1775 3.48701 93.7121 3.48701C93.233 3.48701 92.8679 3.69381 92.6158 4.10741C92.4014 4.44951 92.2953 4.86641 92.2953 5.35921C92.2953 5.83771 92.4025 6.24801 92.6158 6.59011C92.8748 7.00371 93.2353 7.21051 93.7007 7.21051C94.157 7.21051 94.5163 7.00041 94.7741 6.57911C94.9943 6.23041 95.1061 5.81681 95.1061 5.33831Z" fill="#F1F3F9"/>
<path d="M102.783 7.93688H101.588V4.96688C101.588 4.05168 101.228 3.59408 100.504 3.59408C100.149 3.59408 99.8624 3.71948 99.6411 3.97138C99.4198 4.22328 99.3092 4.52028 99.3092 4.86018V7.93578H98.1125V4.23318C98.1125 3.77778 98.0988 3.28388 98.0703 2.74928H99.1198L99.1757 3.55998H99.2088C99.3491 3.30808 99.5567 3.10018 99.8282 2.93408C100.153 2.74048 100.515 2.64258 100.913 2.64258C101.414 2.64258 101.831 2.79878 102.163 3.11228C102.577 3.49618 102.783 4.06928 102.783 4.83048V7.93688Z" fill="#F1F3F9"/>
<path d="M110.821 3.61486H109.505V6.13386C109.505 6.77406 109.739 7.09416 110.202 7.09416C110.416 7.09416 110.594 7.07656 110.734 7.04026L110.765 7.91476C110.529 8.00056 110.219 8.04346 109.837 8.04346C109.365 8.04346 108.998 7.90486 108.732 7.62766C108.465 7.35046 108.333 6.88406 108.333 6.22956V3.61486H107.547V2.75136H108.333V1.80096L109.504 1.45996V2.75026H110.82V3.61486H110.821Z" fill="#F1F3F9"/>
<path d="M117.147 7.93677H115.95V4.98877C115.95 4.05927 115.59 3.59397 114.868 3.59397C114.313 3.59397 113.934 3.86347 113.727 4.40247C113.691 4.51577 113.671 4.65437 113.671 4.81717V7.93567H112.477V0.37207H113.671V3.49717H113.694C114.07 2.92847 114.61 2.64467 115.309 2.64467C115.804 2.64467 116.214 2.80087 116.539 3.11437C116.944 3.50487 117.147 4.08567 117.147 4.85347V7.93677Z" fill="#F1F3F9"/>
<path d="M123.679 5.09864C123.679 5.30544 123.663 5.47924 123.635 5.62114H120.049C120.065 6.13374 120.237 6.52424 120.568 6.79484C120.872 7.03684 121.263 7.15784 121.742 7.15784C122.273 7.15784 122.756 7.07644 123.192 6.91254L123.379 7.71334C122.869 7.92674 122.269 8.03344 121.575 8.03344C120.742 8.03344 120.086 7.79694 119.611 7.32394C119.135 6.85094 118.898 6.21624 118.898 5.41984C118.898 4.63774 119.119 3.98654 119.562 3.46734C120.025 2.91294 120.652 2.63574 121.442 2.63574C122.216 2.63574 122.803 2.91294 123.2 3.46734C123.521 3.90734 123.679 4.45184 123.679 5.09864ZM122.539 4.80054C122.548 4.45844 122.469 4.16364 122.307 3.91504C122.099 3.59494 121.783 3.43434 121.356 3.43434C120.965 3.43434 120.647 3.59054 120.404 3.90404C120.206 4.15374 120.088 4.45184 120.049 4.80054H122.539Z" fill="#F1F3F9"/>
</svg>
