<svg preserveAspectRatio="none" width="100%" height="100%" overflow="visible" style="display: block;" viewBox="0 0 65 20" fill="none" xmlns="http://www.w3.org/2000/svg">
<g id="Fenix">
<path d="M0 0.465115H12.1385V3.96717H3.80423V8.42681H9.93605V11.6279H3.80423V19.5896H0V0.465115Z" fill="var(--fill-0, white)"/>
<path d="M20.6437 20C18.3411 20 16.5307 19.3981 15.2126 18.1943C13.8945 16.9722 13.2354 15.2668 13.2354 13.078C13.2354 10.9074 13.8194 9.19289 14.9874 7.93434C16.172 6.67579 17.8572 6.04651 20.043 6.04651C21.4779 6.04651 22.6959 6.33835 23.697 6.92202C24.6982 7.5057 25.4573 8.31737 25.9746 9.35705C26.4918 10.3785 26.7504 11.5367 26.7504 12.8317V14.5007H16.8394C17.1064 16.1788 18.5413 17.0178 21.1442 17.0178C21.9117 17.0178 22.7043 16.9448 23.5219 16.7989C24.3394 16.653 25.0486 16.4523 25.6492 16.197V19.0971C25.0652 19.3707 24.3144 19.5896 23.3967 19.7538C22.479 19.9179 21.5613 20 20.6437 20ZM23.1715 11.8194C23.1214 10.9439 22.8211 10.269 22.2705 9.7948C21.7199 9.30233 20.9607 9.05609 19.9929 9.05609C19.0419 9.05609 18.291 9.30233 17.7404 9.7948C17.1898 10.2873 16.8895 10.9622 16.8394 11.8194H23.1715Z" fill="var(--fill-0, white)"/>
<path d="M28.8407 6.45691H32.4947V8.07114C33.0453 7.39626 33.6961 6.89466 34.4469 6.56635C35.2144 6.21979 36.0153 6.04651 36.8496 6.04651C38.4847 6.04651 39.7027 6.52987 40.5036 7.49658C41.3212 8.44505 41.73 9.73096 41.73 11.3543V19.5896H37.9508V11.8194C37.9508 10.1231 37.2333 9.27497 35.7984 9.27497C35.1644 9.27497 34.572 9.44825 34.0214 9.7948C33.4708 10.1231 33.0036 10.6156 32.6199 11.2722V19.5896H28.8407V6.45691Z" fill="var(--fill-0, white)"/>
<path d="M46.3159 4.43228C45.732 4.43228 45.2397 4.22253 44.8393 3.80301C44.4389 3.38349 44.2386 2.85454 44.2386 2.21614C44.2386 1.59599 44.4389 1.07615 44.8393 0.656634C45.2397 0.218878 45.732 0 46.3159 0C46.8999 0 47.3921 0.218878 47.7926 0.656634C48.193 1.07615 48.3933 1.59599 48.3933 2.21614C48.3933 2.85454 48.193 3.38349 47.7926 3.80301C47.3921 4.22253 46.8999 4.43228 46.3159 4.43228ZM44.4138 6.45691H48.2181V19.5896H44.4138V6.45691Z" fill="var(--fill-0, white)"/>
<path d="M55.6396 12.8044L50.8343 6.45691H55.064L57.7419 10.0137L60.4449 6.45691H64.6746L59.8443 12.8044L65 19.5896H60.8204L57.7419 15.5677L54.6885 19.5896H50.4839L55.6396 12.8044Z" fill="var(--fill-0, white)"/>
</g>
</svg>
