<svg preserveAspectRatio="none" width="100%" height="100%" overflow="visible" style="display: block;" viewBox="0 0 32 32" fill="none" xmlns="http://www.w3.org/2000/svg">
<g id="logo">
<path id="Vector" d="M26.0275 6.66714C26.0275 6.66714 25.7361 5.90331 25.1358 5.60452C24.5355 5.30593 23.6263 5.43231 23.6263 5.43231C23.6263 5.43231 23.4049 4.49032 21.1495 4.58238C18.8942 4.67443 17.8101 4.93275 16.9243 4.32386C16.0385 3.71498 16.0093 3.42214 15.9394 3.46817C15.8696 3.5142 15.6713 4.20899 16.4115 5.14523C17.2275 6.15032 18.8243 6.06421 18.8243 6.06421C18.8243 6.06421 18.1541 6.74194 17.2041 6.78221C16.2541 6.82249 15.7879 6.63857 15.7879 6.63857C15.7879 6.63857 16.2483 7.50002 16.9243 7.63215C17.6003 7.76428 18.3987 7.4655 18.3987 7.4655C18.3987 7.4655 17.4135 8.57593 17.6776 9.81592C17.9748 11.2116 19.3397 11.5854 22.356 13.5508C26.0188 15.9371 25.7172 18.5992 25.6518 19.297C25.5862 19.9947 25.2147 20.9209 25.6299 20.5074C26.0452 20.0939 27.6448 17.63 27.0809 15.3556C26.5171 13.0812 24.8648 12.0086 24.183 11.4271C23.5011 10.8456 22.2948 9.47586 23.029 8.05434C23.7634 6.63282 26.0275 6.66734 26.0275 6.66734V6.66714Z" fill="url(#paint0_linear_8149_23446)"/>
<path id="Vector_2" d="M23.0029 15.0066C23.0029 15.0066 22.1447 13.7819 17.5828 11.6983C12.8698 9.54571 11.009 6.70148 10.5717 4.80618C10.1345 2.91089 10.2045 1.20506 10.397 0.739815C10.5894 0.274572 10.9041 -0.281141 10.3577 0.162676C9.81135 0.606492 7.7396 2.13555 7.11008 4.82344C6.48076 7.51134 7.93186 9.24296 8.84966 10.2423C9.76747 11.2416 11.2274 11.9739 11.2274 11.9739C11.2274 11.9739 10.0298 12.241 7.97534 10.7333C5.9209 9.2257 5.27406 7.39924 5.27406 7.39924C5.27406 7.39924 4.20748 9.8201 5.27406 13.1627C6.34064 16.5053 9.32155 17.1946 11.2447 17.3324C13.1679 17.4703 13.7886 17.2463 13.7886 17.2463C13.7886 17.2463 12.6697 18.0562 10.9913 18.1725C9.31289 18.2887 7.35911 17.7072 7.35911 17.7072C7.35911 17.7072 8.73592 19.5422 11.411 20.3304C14.0861 21.1187 16.4069 20.6923 19.2525 19.4128C22.098 18.1336 23.0029 15.0062 23.0029 15.0062V15.0066Z" fill="url(#paint1_linear_8149_23446)"/>
<path id="Vector_3" d="M23.4575 15.4719C23.4575 15.4719 25.2583 17.0226 24.8212 19.969C24.3841 22.9154 21.272 24.4532 19.7377 25.4094C18.2035 26.3657 16.8792 27.5545 16.3941 29.002C15.9089 30.4493 16.1712 32 16.1712 32C16.1712 32 14.401 30.6948 14.2698 28.6788C14.1387 26.6629 15.2926 25.0218 16.0794 24.3756C16.8661 23.7294 17.1939 23.5356 17.1939 23.5356C17.1939 23.5356 15.5679 23.6389 14.0862 25.112C12.6045 26.5851 12.4732 28.3428 12.4732 28.3428C12.4732 28.3428 11.4636 25.8616 12.4732 23.9232C13.4828 21.9849 15.2445 21.5206 17.4779 20.951C19.7247 20.3781 21.7789 19.0772 22.592 17.5654C23.3339 16.1857 23.4575 15.4719 23.4575 15.4719Z" fill="url(#paint2_linear_8149_23446)"/>
</g>
<defs>
<linearGradient id="paint0_linear_8149_23446" x1="15.7879" y1="12.0366" x2="27.1999" y2="12.0366" gradientUnits="userSpaceOnUse">
<stop stop-color="#EF8A25"/>
<stop offset="0.81" stop-color="#DA2030"/>
</linearGradient>
<linearGradient id="paint1_linear_8149_23446" x1="4.80016" y1="10.3641" x2="23.0029" y2="10.3641" gradientUnits="userSpaceOnUse">
<stop stop-color="#EF8A25"/>
<stop offset="0.81" stop-color="#DA2030"/>
</linearGradient>
<linearGradient id="paint2_linear_8149_23446" x1="12.0245" y1="23.7359" x2="24.8894" y2="23.7359" gradientUnits="userSpaceOnUse">
<stop stop-color="#EF8A25"/>
<stop offset="0.81" stop-color="#DA2030"/>
</linearGradient>
</defs>
</svg>
