<svg width="133" height="30" viewBox="0 0 133 30" fill="none" xmlns="http://www.w3.org/2000/svg">
<path d="M42.7177 3.71711C42.7177 4.63561 42.4325 5.37124 41.8707 5.91986C41.2247 6.57024 40.3834 6.89749 39.3525 6.89749C38.3672 6.89749 37.5259 6.56474 36.8357 5.90886C36.1441 5.24336 35.7991 4.42661 35.7991 3.44899C35.7991 2.47136 36.1441 1.65461 36.8357 0.994614C37.5259 0.333239 38.3672 0.000488281 39.3525 0.000488281C39.843 0.000488281 40.3107 0.0981134 40.757 0.279613C41.2019 0.462488 41.5641 0.709988 41.8265 1.01524L41.2304 1.59549C40.7727 1.07436 40.1496 0.817239 39.3525 0.817239C38.6338 0.817239 38.0107 1.05924 37.4817 1.54736C36.9584 2.03686 36.696 2.67074 36.696 3.44899C36.696 4.22724 36.9584 4.86661 37.4817 5.35611C38.0107 5.83874 38.6338 6.08624 39.3525 6.08624C40.1154 6.08624 40.757 5.83874 41.2632 5.35061C41.5969 5.02749 41.7865 4.58199 41.8364 4.01274H39.3525V3.21799H42.6663C42.7063 3.38986 42.7177 3.55624 42.7177 3.71711Z" fill="#F1F3F9"/>
<path d="M47.968 0.960753H44.856V3.05075H47.6615V3.8455H44.856V5.9355H47.968V6.74538H43.975V0.150879H47.968V0.960753Z" fill="#F1F3F9"/>
<path d="M51.6813 6.74635H50.8003V0.96173H48.8915V0.151855H53.5916V0.96173H51.6813V6.74635Z" fill="#F1F3F9"/>
<path d="M56.9971 6.74538V0.150879H57.8766V6.74538H56.9971Z" fill="#F1F3F9"/>
<path d="M61.7801 6.74538H60.9062V0.960753H58.9902V0.150879H63.696V0.960753H61.7801V6.74538Z" fill="#F1F3F9"/>
<path d="M72.5995 5.89786C71.9251 6.56474 71.0895 6.89749 70.0928 6.89749C69.0903 6.89749 68.2547 6.56474 67.5803 5.89786C66.9072 5.23236 66.5721 4.41561 66.5721 3.44899C66.5721 2.48236 66.9072 1.66561 67.5803 1.00011C68.2547 0.333239 69.0903 0.000488281 70.0928 0.000488281C71.0838 0.000488281 71.9194 0.333238 72.5938 1.00561C73.2726 1.67661 73.6077 2.48786 73.6077 3.44899C73.6077 4.41561 73.2726 5.23236 72.5995 5.89786ZM68.2319 5.34511C68.7396 5.83874 69.357 6.08624 70.0928 6.08624C70.8228 6.08624 71.446 5.83874 71.9479 5.34511C72.4541 4.85149 72.7108 4.21761 72.7108 3.44899C72.7108 2.68036 72.4541 2.04649 71.9479 1.55286C71.446 1.05924 70.8228 0.811738 70.0928 0.811738C69.357 0.811738 68.7396 1.05924 68.2319 1.55286C67.7257 2.04649 67.4691 2.68036 67.4691 3.44899C67.4691 4.21761 67.7257 4.85149 68.2319 5.34511Z" fill="#F1F3F9"/>
<path d="M74.834 6.74538V0.150879H75.9035L79.2287 5.27963H79.2672L79.2287 4.01188V0.150879H80.1086V6.74538H79.1902L75.7081 1.36363H75.6696L75.7081 2.63688V6.74538H74.834Z" fill="#F1F3F9"/>
<path d="M66.3518 16.3766C63.6725 16.3766 61.4837 18.3428 61.4837 21.0557C61.4837 23.7466 63.6725 25.7335 66.3518 25.7335C69.0369 25.7335 71.2256 23.7466 71.2256 21.0557C71.2256 18.3428 69.0369 16.3766 66.3518 16.3766ZM66.3518 23.891C64.8817 23.891 63.6169 22.7208 63.6169 21.0557C63.6169 19.3686 64.8817 18.2191 66.3518 18.2191C67.822 18.2191 69.0925 19.3686 69.0925 21.0557C69.0925 22.7208 67.822 23.891 66.3518 23.891ZM55.7301 16.3766C53.0451 16.3766 50.862 18.3428 50.862 21.0557C50.862 23.7466 53.0451 25.7335 55.7301 25.7335C58.4137 25.7335 60.5982 23.7466 60.5982 21.0557C60.5982 18.3428 58.4137 16.3766 55.7301 16.3766ZM55.7301 23.891C54.2586 23.891 52.9895 22.7208 52.9895 21.0557C52.9895 19.3686 54.2586 18.2191 55.7301 18.2191C57.2002 18.2191 58.465 19.3686 58.465 21.0557C58.465 22.7208 57.2002 23.891 55.7301 23.891ZM43.0907 17.8107V19.799H48.0144C47.8704 20.91 47.4854 21.7267 46.8951 22.296C46.1764 22.9835 45.0571 23.7466 43.0907 23.7466C40.0606 23.7466 37.6879 21.3885 37.6879 18.4666C37.6879 15.5447 40.0606 13.1866 43.0907 13.1866C44.7291 13.1866 45.9212 13.804 46.801 14.6042L48.254 13.2031C47.0234 12.0701 45.3865 11.1997 43.0907 11.1997C38.9356 11.1997 35.4435 14.4598 35.4435 18.4666C35.4435 22.4733 38.9356 25.7335 43.0907 25.7335C45.3365 25.7335 47.0234 25.024 48.3495 23.693C49.7084 22.3826 50.1319 20.5401 50.1319 19.0523C50.1319 18.5903 50.092 18.1655 50.0207 17.8107H43.0907ZM94.7748 19.3521C94.3741 18.3057 93.1378 16.3766 90.6197 16.3766C88.1243 16.3766 86.0467 18.2727 86.0467 21.0557C86.0467 23.6765 88.1029 25.7335 90.8592 25.7335C93.0879 25.7335 94.3741 24.4231 94.9031 23.66L93.2491 22.5971C92.6972 23.3753 91.9458 23.891 90.8592 23.891C89.7798 23.891 89.0055 23.4138 88.5093 22.4733L94.9987 19.8842L94.7748 19.3521ZM88.1585 20.91C88.1029 19.106 89.6115 18.182 90.6924 18.182C91.5394 18.182 92.258 18.5903 92.4976 19.1747L88.1585 20.91ZM82.884 25.4488H85.0172V11.6988H82.884V25.4488ZM79.3905 17.4188H79.3192C78.8401 16.8716 77.9261 16.3766 76.7682 16.3766C74.3384 16.3766 72.1169 18.4336 72.1169 21.0708C72.1169 23.693 74.3384 25.7335 76.7682 25.7335C77.9261 25.7335 78.8401 25.2343 79.3192 24.6706H79.3905V25.3416C79.3905 27.1305 78.3995 28.0916 76.801 28.0916C75.4977 28.0916 74.6892 27.1841 74.3556 26.421L72.5004 27.1676C73.0351 28.4078 74.4511 29.9341 76.801 29.9341C79.3021 29.9341 81.4125 28.5151 81.4125 25.0625V16.6612H79.3905V17.4188ZM76.9507 23.891C75.4806 23.891 74.25 22.7043 74.25 21.0708C74.25 19.4222 75.4806 18.2191 76.9507 18.2191C78.3995 18.2191 79.5416 19.4222 79.5416 21.0708C79.5416 22.7043 78.3995 23.891 76.9507 23.891ZM104.762 11.6988H99.66V25.4488H101.788V20.239H104.762C107.125 20.239 109.442 18.5903 109.442 15.9682C109.442 13.3475 107.119 11.6988 104.762 11.6988ZM104.818 18.3263H101.788V13.6115H104.818C106.406 13.6115 107.313 14.8833 107.313 15.9682C107.313 17.0325 106.406 18.3263 104.818 18.3263ZM117.969 16.3505C116.432 16.3505 114.833 17.005 114.176 18.4556L116.064 19.2187C116.47 18.4556 117.217 18.2081 118.007 18.2081C119.111 18.2081 120.23 18.8475 120.248 19.9763V20.1207C119.863 19.9062 119.038 19.5886 118.025 19.5886C115.991 19.5886 113.919 20.668 113.919 22.6823C113.919 24.5248 115.585 25.7115 117.457 25.7115C118.889 25.7115 119.679 25.0886 120.175 24.364H120.248V25.4268H122.302V20.1523C122.302 17.7145 120.414 16.3505 117.969 16.3505ZM117.712 23.8855C117.016 23.8855 116.047 23.5527 116.047 22.7208C116.047 21.6566 117.256 21.2482 118.303 21.2482C119.239 21.2482 119.679 21.4476 120.248 21.7102C120.081 22.9835 118.944 23.8855 117.712 23.8855ZM129.788 16.6516L127.343 22.6122H127.27L124.742 16.6516H122.448L126.246 24.9813L124.079 29.6165H126.302L132.155 16.6516H129.788ZM110.611 25.4488H112.744V11.6988H110.611V25.4488Z" fill="#F1F3F9"/>
<path d="M0.529017 0.741332C0.193925 1.07958 0 1.60621 0 2.28821V26.6147C0 27.2967 0.193925 27.8233 0.529017 28.1616L0.611722 28.2358L14.7483 14.6096V14.2878L0.611722 0.661583L0.529017 0.741332Z" fill="url(#paint0_linear_6016_10015)"/>
<path d="M19.4565 19.1538L14.7495 14.6094V14.2877L19.4622 9.74331L19.5677 9.80243L25.1488 12.8646C26.7415 13.7336 26.7415 15.1636 25.1488 16.0381L19.5677 19.0947L19.4565 19.1538Z" fill="url(#paint1_linear_6016_10015)"/>
<path d="M19.569 19.0945L14.7508 14.4483L0.531494 28.1612C1.06051 28.6975 1.9232 28.7621 2.90423 28.2258L19.569 19.0945Z" fill="url(#paint2_linear_6016_10015)"/>
<path d="M19.569 9.80261L2.90423 0.671234C1.9232 0.140484 1.06051 0.205107 0.531494 0.741357L14.7508 14.4487L19.569 9.80261Z" fill="url(#paint3_linear_6016_10015)"/>
<defs>
<linearGradient id="paint0_linear_6016_10015" x1="13.4932" y1="26.868" x2="-4.95526" y2="7.73634" gradientUnits="userSpaceOnUse">
<stop stop-color="#00A0FF"/>
<stop offset="0.0066" stop-color="#00A1FF"/>
<stop offset="0.2601" stop-color="#00BEFF"/>
<stop offset="0.5122" stop-color="#00D2FF"/>
<stop offset="0.7604" stop-color="#00DFFF"/>
<stop offset="1" stop-color="#00E3FF"/>
</linearGradient>
<linearGradient id="paint1_linear_6016_10015" x1="27.2228" y1="14.447" x2="-0.379558" y2="14.447" gradientUnits="userSpaceOnUse">
<stop stop-color="#FFE000"/>
<stop offset="0.4087" stop-color="#FFBD00"/>
<stop offset="0.7754" stop-color="#FFA500"/>
<stop offset="1" stop-color="#FF9C00"/>
</linearGradient>
<linearGradient id="paint2_linear_6016_10015" x1="16.949" y1="11.9226" x2="-8.06855" y2="-14.0215" gradientUnits="userSpaceOnUse">
<stop stop-color="#FF3A44"/>
<stop offset="1" stop-color="#C31162"/>
</linearGradient>
<linearGradient id="paint3_linear_6016_10015" x1="-3.04781" y1="36.2549" x2="8.12367" y2="24.6698" gradientUnits="userSpaceOnUse">
<stop stop-color="#32A071"/>
<stop offset="0.0685" stop-color="#2DA771"/>
<stop offset="0.4762" stop-color="#15CF74"/>
<stop offset="0.8009" stop-color="#06E775"/>
<stop offset="1" stop-color="#00F076"/>
</linearGradient>
</defs>
</svg>
