<svg
  xmlns="http://www.w3.org/2000/svg"
  width="100%"
  height="100%"
  viewBox="0 0 16 16"
  fill="none"
  preserveAspectRatio="none"
>
  <g transform="translate(2.152 0)">
    <path
      d="M5.84881 0C2.62362 0 0 2.62366 0 5.84881V6.48325H1.18959V5.84881C1.18959 3.27969 3.27972 1.18959 5.84881 1.18959C8.41791 1.18959 10.508 3.27972 10.508 5.84881V6.48325H11.6976V5.84881C11.6976 2.62366 9.07381 0 5.84881 0Z"
      fill="var(--fill-0, #5D5FA8)"
    />
  </g>

  <g transform="translate(0.248 5.888)">
    <path
      d="M3.33084 0H1.86369C0.836094 0 0 0.836094 0 1.86369V4.57991C0 5.6075 0.836094 6.44359 1.86369 6.44359H3.33084C3.65938 6.44359 3.92563 6.17731 3.92563 5.84881V0.594812C3.92566 0.266281 3.65938 0 3.33084 0ZM2.73606 5.25403H1.86369C1.48578 5.25403 1.18959 4.95803 1.18959 4.57994V1.86372C1.18959 1.48581 1.48581 1.18962 1.86369 1.18962H2.73606V5.25403Z"
      fill="var(--fill-0, #5D5FA8)"
    />
  </g>

  <g transform="translate(11.827 5.888)">
    <path
      d="M2.06175 0H0.594781C0.26625 0 0 0.266281 0 0.594781V5.84881C0 6.17734 0.266281 6.44359 0.594781 6.44359H2.06194C3.08953 6.44359 3.92563 5.6075 3.92544 4.57991V1.86369C3.92544 0.836094 3.08956 0 2.06175 0ZM2.73584 4.57994C2.73584 4.95803 2.43984 5.25403 2.06175 5.25403H1.18959V1.18959H2.06175C2.43984 1.18959 2.73584 1.48581 2.73584 1.86369V4.57994Z"
      fill="var(--fill-0, #5D5FA8)"
    />
  </g>

  <g transform="translate(9.982 11.738)">
    <path
      d="M3.09313 0C3.09313 0.830938 2.41703 1.50681 1.58613 1.50681H0V2.69641H1.58613C3.07291 2.69641 4.28253 1.48678 4.28272 0H3.09313Z"
      fill="var(--fill-0, #5D5FA8)"
    />
  </g>

  <g transform="translate(6.235 11.678)">
    <path
      d="M4.32197 2.17456C4.31463 3.35978 3.34791 4.32197 2.16088 4.32197C0.9695 4.32197 0 3.35266 0 2.16106C0 0.969468 0.978406 0 2.18091 0C2.77472 0 3.34672 0.242094 3.74997 0.664375C4.14134 1.07381 4.34397 1.60953 4.32197 2.17456ZM2.89028 1.48659C2.71006 1.29803 2.45153 1.18978 2.18109 1.18978C1.64378 1.18978 1.18978 1.63469 1.18978 2.16128C1.18978 2.69678 1.62538 3.13259 2.16109 3.13259C2.69681 3.13259 3.13259 2.69659 3.13278 2.1615C3.13278 2.15238 3.13297 2.14347 3.13338 2.13434C3.14425 1.89225 3.05803 1.66206 2.89028 1.48659Z"
      fill="var(--fill-0, #5D5FA8)"
    />
  </g>
</svg>
